<?xml version="1.0" encoding="iso-8859-1"?>
<!-- Generator: Adobe Illustrator 19.0.0, SVG Export Plug-In . SVG Version: 6.00 Build 0)  -->
<svg version="1.1" id="Capa_1" xmlns="http://www.w3.org/2000/svg" xmlns:xlink="http://www.w3.org/1999/xlink" x="0px" y="0px"
	 viewBox="0 0 512 512" style="enable-background:new 0 0 512 512;" xml:space="preserve">
<g>
	<g>
		<g>
			<circle cx="183" cy="275" r="20"/>
			<path d="M437.02,74.98C388.667,26.629,324.38,0,256,0S123.333,26.629,74.98,74.98C26.629,123.333,0,187.62,0,256
				c0,0.269,0.009,0.537,0.01,0.806C0.01,256.871,0,256.935,0,257c0,2.191,0.049,4.371,0.12,6.545
				C2.005,329.098,28.412,390.45,74.98,437.02C123.333,485.371,187.62,512,256,512c46.813,0,92.618-12.758,132.462-36.894
				c9.448-5.724,12.467-18.021,6.744-27.469c-5.723-9.448-18.022-12.467-27.468-6.744C334.144,461.244,295.506,472,256,472
				c-32,0-62.391-7.003-89.737-19.544c9.867,1.596,19.976,2.464,30.27,2.539c0.155,0.003,0.311,0.005,0.467,0.005h1
				c0.172,0,0.344-0.002,0.515-0.007C293.767,454.18,371,376.44,371,281c0-83.813-68.187-152-152-152c-73.888,0-134,60.112-134,134
				c0,61.757,50.243,112,112,112c50.729,0,92-41.271,92-92c0-11.046-8.954-20-20-20c-11.046,0-20,8.954-20,20
				c0,28.673-23.327,52-52,52c-39.701,0-72-32.299-72-72c0-51.832,42.168-94,94-94c61.757,0,112,50.243,112,112
				c0,73.729-59.851,133.743-133.522,133.999c-84.161-0.275-153.043-66.692-157.272-149.885C40.08,262.09,40,259.054,40,256
				c0-119.103,96.897-216,216-216c82.362,0,154.095,46.343,190.52,114.316c-23.009-26.524-52.007-48.162-85.568-62.705
				c0,0-0.001,0-0.002-0.001c-1.647-0.714-3.338-1.165-5.033-1.415c-8.735-1.293-17.59,3.328-21.267,11.815
				c-4.392,10.135,0.264,21.911,10.399,26.303c72.648,31.481,119.662,102.853,119.946,181.967
				c-6.073,23.129-16.026,45.271-29.62,65.604c-6.139,9.183-3.672,21.604,5.511,27.742c9.184,6.139,21.604,3.673,27.742-5.51
				C497.001,355.674,512,306.53,512,256C512,187.62,485.371,123.333,437.02,74.98z"/>
			<circle cx="412" cy="305" r="20"/>
			<circle cx="224" cy="229" r="20"/>
			<path d="M255.48,91.35c-0.47,11.04,8.1,20.36,19.13,20.83c0.29,0.02,0.58,0.02,0.86,0.02c10.66,0,19.52-8.4,19.97-19.15
				c0.47-11.04-8.09-20.36-19.13-20.83C265.27,71.75,255.95,80.32,255.48,91.35z"/>
		</g>
	</g>
</g>
<g>
</g>
<g>
</g>
<g>
</g>
<g>
</g>
<g>
</g>
<g>
</g>
<g>
</g>
<g>
</g>
<g>
</g>
<g>
</g>
<g>
</g>
<g>
</g>
<g>
</g>
<g>
</g>
<g>
</g>
</svg>
